<svg id="Layer_1" data-name="Layer 1" xmlns="http://www.w3.org/2000/svg" viewBox="0 0 153.59 193.36"><defs><style>.cls-1{fill:#ed1c24;}.cls-11,.cls-12,.cls-14,.cls-2,.cls-4,.cls-7{fill:none;}.cls-2,.cls-5{stroke:#003f72;}.cls-11,.cls-12,.cls-13,.cls-14,.cls-2,.cls-4,.cls-5,.cls-6,.cls-7,.cls-9{stroke-miterlimit:10;}.cls-3{fill:#003f72;}.cls-4{stroke:#174170;}.cls-13,.cls-15,.cls-5{fill:#fff;}.cls-6,.cls-9{fill:#114470;}.cls-11,.cls-12,.cls-14,.cls-6,.cls-9{stroke:#fff;}.cls-6{stroke-width:0.75px;}.cls-7{stroke:#ed1c24;}.cls-8{fill:#0083be;}.cls-11,.cls-12,.cls-9{stroke-width:2px;}.cls-10{fill:#008ccc;}.cls-12{stroke-dasharray:1.52 1.52;}.cls-13{stroke:#008ccc;}</style></defs><title>Modeling to Learn - 02</title><rect class="cls-1" x="40.05" y="85.09" width="97.88" height="10.8"/><polygon class="cls-1" points="136.49 99.58 152.38 90.3 136.49 81.03 136.49 99.58"/><line class="cls-2" x1="79.06" y1="24.89" x2="79.06" y2="39.83"/><path class="cls-3" d="M66.21,35.63c0-.94-.11-2.08-.11-2.91h0c-.24.78-.51,1.63-.85,2.56L64,38.55h-.66l-1.1-3.21c-.32-1-.58-1.82-.77-2.62h0c0,.84-.07,2-.13,3l-.18,2.89h-.83l.47-6.74h1.11l1.15,3.26c.28.83.5,1.57.68,2.27h0c.18-.68.42-1.42.72-2.27l1.2-3.26h1.11l.42,6.74h-.86Z" transform="translate(-52.2 -27.83)"/><path class="cls-3" d="M72.54,36.13a2.37,2.37,0,0,1-2.41,2.57,2.31,2.31,0,0,1-2.32-2.49,2.36,2.36,0,0,1,2.4-2.56A2.29,2.29,0,0,1,72.54,36.13Zm-3.83,0c0,1.06.6,1.86,1.46,1.86s1.47-.79,1.47-1.88c0-.82-.41-1.85-1.45-1.85S68.72,35.27,68.72,36.18Z" transform="translate(-52.2 -27.83)"/><path class="cls-3" d="M77.39,31.49v5.85c0,.43,0,.92,0,1.25h-.78l0-.84h0a1.75,1.75,0,0,1-1.63.95,2.21,2.21,0,0,1-2.08-2.46A2.31,2.31,0,0,1,75,33.65a1.62,1.62,0,0,1,1.46.73h0V31.49Zm-.87,4.23a1.56,1.56,0,0,0,0-.37,1.3,1.3,0,0,0-1.27-1c-.91,0-1.45.8-1.45,1.86S74.25,38,75.19,38a1.33,1.33,0,0,0,1.29-1,1.54,1.54,0,0,0,0-.38Z" transform="translate(-52.2 -27.83)"/><path class="cls-3" d="M78.91,36.33A1.55,1.55,0,0,0,80.57,38a3.14,3.14,0,0,0,1.34-.25l.16.63a4,4,0,0,1-1.62.31,2.25,2.25,0,0,1-2.38-2.45,2.34,2.34,0,0,1,2.27-2.6,2,2,0,0,1,2,2.27,2.15,2.15,0,0,1,0,.41Zm2.58-.63a1.25,1.25,0,0,0-1.22-1.42,1.44,1.44,0,0,0-1.35,1.42Z" transform="translate(-52.2 -27.83)"/><path class="cls-3" d="M83,31.49h.88v7.1H83Z" transform="translate(-52.2 -27.83)"/><path class="cls-3" d="M85.89,32.39a.53.53,0,0,1-.56.54.52.52,0,0,1-.53-.54.54.54,0,0,1,.55-.55A.53.53,0,0,1,85.89,32.39Zm-1,6.2V33.75h.88v4.84Z" transform="translate(-52.2 -27.83)"/><path class="cls-3" d="M86.81,35.06c0-.51,0-.91,0-1.31h.78l0,.8h0a1.79,1.79,0,0,1,1.6-.9c.67,0,1.71.4,1.71,2.06v2.88H90V35.8c0-.78-.29-1.43-1.12-1.43a1.29,1.29,0,0,0-1.24,1.31v2.91h-.88Z" transform="translate(-52.2 -27.83)"/><path class="cls-3" d="M96.05,37.88a2.84,2.84,0,0,1-.69,2.22,2.66,2.66,0,0,1-1.77.58,3.12,3.12,0,0,1-1.61-.4l.22-.68a2.63,2.63,0,0,0,1.42.39c.9,0,1.56-.47,1.56-1.7v-.53h0a1.72,1.72,0,0,1-1.54.81,2.16,2.16,0,0,1-2.06-2.36,2.31,2.31,0,0,1,2.19-2.56,1.62,1.62,0,0,1,1.51.83h0l0-.73h.78c0,.34,0,.74,0,1.32Zm-.88-2.22a1.16,1.16,0,0,0,0-.39,1.26,1.26,0,0,0-1.23-.94c-.84,0-1.44.71-1.44,1.83,0,.95.49,1.74,1.43,1.74a1.27,1.27,0,0,0,1.22-.9,1.53,1.53,0,0,0,.07-.47Z" transform="translate(-52.2 -27.83)"/><rect class="cls-2" x="5.97" y="0.5" width="39.79" height="14.67"/><path class="cls-1" d="M58,83.6h1.4l-1.31,6.86h3.18L61,91.69H56.44Z" transform="translate(-52.2 -27.83)"/><path class="cls-1" d="M66.87,88.09H64l-.46,2.41h3.26l-.23,1.19H61.88l1.54-8.08H67.9l-.23,1.19H64.59l-.41,2.12H67.1Z" transform="translate(-52.2 -27.83)"/><path class="cls-1" d="M69.65,89.38l-1.1,2.3H67.06l4.05-8.08h1.75l1,8.08H72.42l-.23-2.3Zm2.46-1.08-.23-2c0-.43-.08-1.05-.12-1.54h0c-.22.48-.43,1.06-.66,1.54l-1,2Z" transform="translate(-52.2 -27.83)"/><path class="cls-1" d="M76.2,83.74a9.56,9.56,0,0,1,2-.19,3.48,3.48,0,0,1,2,.53A1.71,1.71,0,0,1,81,85.53a2.44,2.44,0,0,1-1.87,2.31v0c.53.2.76.77.83,1.54a13.62,13.62,0,0,0,.29,2.27H78.78a15.27,15.27,0,0,1-.22-1.93c-.06-1-.43-1.4-1.18-1.4H76.7l-.64,3.33H74.69Zm.71,3.55h.79a1.64,1.64,0,0,0,1.82-1.55c0-.74-.59-1.08-1.38-1.08a2.79,2.79,0,0,0-.74.07Z" transform="translate(-52.2 -27.83)"/><path class="cls-1" d="M81.19,91.69l1.54-8.08h1.61l1.42,3.75a20.76,20.76,0,0,1,.73,2.53h0a21.16,21.16,0,0,1,.36-2.73l.67-3.55h1.32l-1.54,8.08H85.89l-1.45-3.83a19.57,19.57,0,0,1-.77-2.6h0c-.08.77-.25,1.76-.47,3l-.66,3.45Z" transform="translate(-52.2 -27.83)"/><rect class="cls-2" x="0.5" y="52.25" width="39.18" height="14.73"/><polygon class="cls-4" points="23.83 49.86 8.13 34.17 23.98 18.32 23.83 49.86"/><line class="cls-2" x1="34.17" y1="16.35" x2="34.17" y2="34.33"/><line class="cls-2" x1="40.22" y1="16.38" x2="40.22" y2="34.5"/><circle class="cls-5" cx="34.17" cy="15.5" r="1.37"/><circle class="cls-5" cx="40.16" cy="15.5" r="1.37"/><line class="cls-2" x1="34.17" y1="26.72" x2="21.31" y2="26.72"/><circle class="cls-5" cx="34.17" cy="26.72" r="1.37"/><circle class="cls-5" cx="21.34" cy="26.72" r="1.37"/><line class="cls-2" x1="32.59" y1="41.64" x2="21.26" y2="41.64"/><circle class="cls-5" cx="21.26" cy="41.67" r="1.37"/><path class="cls-3" d="M87.93,63.9l-.23,1.17h1l-.12.59h-1l-.41,2.12a3.82,3.82,0,0,0-.08.7.37.37,0,0,0,.41.41,2.05,2.05,0,0,0,.35,0l0,.59a1.73,1.73,0,0,1-.58.08.81.81,0,0,1-.92-.85,4.05,4.05,0,0,1,.09-.82l.43-2.21h-.63l.12-.59H87l.19-1Z" transform="translate(-52.2 -27.83)"/><path class="cls-3" d="M92.71,66.79a2.61,2.61,0,0,1-2.41,2.74,1.66,1.66,0,0,1-1.7-1.79A2.61,2.61,0,0,1,91,65,1.66,1.66,0,0,1,92.71,66.79Zm-3.34.92c0,.71.39,1.22,1,1.22.88,0,1.55-1.13,1.55-2.15a1.08,1.08,0,0,0-1-1.22C90,65.56,89.37,66.71,89.37,67.71Z" transform="translate(-52.2 -27.83)"/><rect class="cls-2" x="32.17" y="34.46" width="9.88" height="9.25"/><polyline class="cls-2" points="10.63 34.25 3.55 34.25 3.55 52.08"/><circle class="cls-5" cx="3.42" cy="52.14" r="1.37"/><circle class="cls-5" cx="11.97" cy="34.25" r="1.37"/><path class="cls-3" d="M124,37.8c0-.94-.11-2.08-.11-2.91h0c-.24.78-.51,1.63-.85,2.56l-1.19,3.27h-.66l-1.1-3.21c-.32-1-.58-1.82-.77-2.62h0c0,.84-.07,2-.13,3L119,40.76h-.83l.47-6.74h1.11l1.15,3.26c.28.83.5,1.57.68,2.27h0c.18-.68.42-1.42.72-2.27l1.2-3.26h1.11l.42,6.74h-.86Z" transform="translate(-52.2 -27.83)"/><path class="cls-3" d="M130.38,38.3A2.37,2.37,0,0,1,128,40.87a2.31,2.31,0,0,1-2.32-2.49,2.36,2.36,0,0,1,2.4-2.56A2.29,2.29,0,0,1,130.38,38.3Zm-3.83,0c0,1.06.6,1.86,1.46,1.86s1.47-.79,1.47-1.88c0-.82-.41-1.85-1.45-1.85S126.55,37.44,126.55,38.35Z" transform="translate(-52.2 -27.83)"/><path class="cls-3" d="M135.22,33.66v5.85c0,.43,0,.92,0,1.25h-.78l0-.84h0a1.75,1.75,0,0,1-1.63.95,2.21,2.21,0,0,1-2.08-2.46,2.31,2.31,0,0,1,2.17-2.59,1.62,1.62,0,0,1,1.46.73h0V33.66Zm-.87,4.23a1.56,1.56,0,0,0,0-.37,1.3,1.3,0,0,0-1.27-1c-.91,0-1.45.8-1.45,1.86s.49,1.79,1.43,1.79a1.33,1.33,0,0,0,1.29-1,1.54,1.54,0,0,0,0-.38Z" transform="translate(-52.2 -27.83)"/><path class="cls-3" d="M136.74,38.5a1.55,1.55,0,0,0,1.66,1.68,3.14,3.14,0,0,0,1.34-.25l.16.63a4,4,0,0,1-1.62.31,2.25,2.25,0,0,1-2.38-2.45,2.34,2.34,0,0,1,2.27-2.6,2,2,0,0,1,2,2.27,2.15,2.15,0,0,1,0,.41Zm2.58-.63a1.25,1.25,0,0,0-1.22-1.42,1.44,1.44,0,0,0-1.35,1.42Z" transform="translate(-52.2 -27.83)"/><path class="cls-3" d="M140.82,33.66h.88v7.1h-.88Z" transform="translate(-52.2 -27.83)"/><path class="cls-3" d="M143.72,34.56a.53.53,0,0,1-.56.54.52.52,0,0,1-.53-.54.54.54,0,0,1,.55-.55A.53.53,0,0,1,143.72,34.56Zm-1,6.2V35.92h.88v4.84Z" transform="translate(-52.2 -27.83)"/><path class="cls-3" d="M144.64,37.23c0-.51,0-.91,0-1.31h.78l0,.8h0a1.79,1.79,0,0,1,1.6-.9c.67,0,1.71.4,1.71,2.06v2.88h-.88V38c0-.78-.29-1.43-1.12-1.43a1.29,1.29,0,0,0-1.24,1.31v2.91h-.88Z" transform="translate(-52.2 -27.83)"/><path class="cls-3" d="M153.89,40a2.84,2.84,0,0,1-.69,2.22,2.66,2.66,0,0,1-1.77.58,3.12,3.12,0,0,1-1.61-.4l.22-.68a2.63,2.63,0,0,0,1.42.39c.9,0,1.56-.47,1.56-1.7v-.53h0a1.72,1.72,0,0,1-1.54.81,2.16,2.16,0,0,1-2.06-2.36,2.31,2.31,0,0,1,2.19-2.56,1.62,1.62,0,0,1,1.51.83h0l0-.73h.78c0,.34,0,.74,0,1.32ZM153,37.83a1.16,1.16,0,0,0,0-.39,1.26,1.26,0,0,0-1.23-.94c-.84,0-1.44.71-1.44,1.83,0,.95.49,1.74,1.43,1.74a1.27,1.27,0,0,0,1.22-.9,1.54,1.54,0,0,0,.07-.47Z" transform="translate(-52.2 -27.83)"/><rect class="cls-2" x="63.8" y="2.67" width="39.79" height="14.67"/><path class="cls-1" d="M121.81,76.77h1.4l-1.31,6.86h3.18l-.23,1.22h-4.58Z" transform="translate(-52.2 -27.83)"/><path class="cls-1" d="M130.71,81.25h-2.9l-.46,2.41h3.26l-.23,1.19h-4.67l1.54-8.08h4.49L131.51,78h-3.08L128,80.08h2.91Z" transform="translate(-52.2 -27.83)"/><path class="cls-1" d="M133.48,82.55l-1.1,2.3h-1.49l4.05-8.08h1.75l1,8.08h-1.46l-.23-2.3Zm2.46-1.08-.23-2c0-.43-.08-1.05-.12-1.54h0c-.22.48-.43,1.06-.66,1.54l-1,2Z" transform="translate(-52.2 -27.83)"/><path class="cls-1" d="M140,76.9a9.56,9.56,0,0,1,2-.19,3.48,3.48,0,0,1,2,.53,1.71,1.71,0,0,1,.77,1.46A2.44,2.44,0,0,1,143,81v0c.53.2.76.77.83,1.54a13.62,13.62,0,0,0,.29,2.27h-1.44a15.27,15.27,0,0,1-.22-1.93c-.06-1-.43-1.4-1.18-1.4h-.68l-.64,3.33h-1.38Zm.71,3.55h.79a1.64,1.64,0,0,0,1.82-1.55c0-.74-.59-1.08-1.38-1.08a2.79,2.79,0,0,0-.74.07Z" transform="translate(-52.2 -27.83)"/><path class="cls-1" d="M145,84.85l1.54-8.08h1.61l1.42,3.75a20.75,20.75,0,0,1,.73,2.53h0a21.23,21.23,0,0,1,.36-2.73l.67-3.55h1.32l-1.54,8.08h-1.43L148.28,81a19.72,19.72,0,0,1-.77-2.6h0c-.08.77-.25,1.76-.47,3l-.66,3.45Z" transform="translate(-52.2 -27.83)"/><rect class="cls-2" x="64.34" y="45.42" width="39.18" height="14.73"/><line class="cls-2" x1="92.01" y1="18.93" x2="92.01" y2="32.5"/><line class="cls-2" x1="98.06" y1="18.55" x2="98.06" y2="32.67"/><circle class="cls-5" cx="91.97" cy="17.48" r="1.37"/><circle class="cls-5" cx="97.96" cy="17.48" r="1.37"/><line class="cls-2" x1="92.01" y1="24.89" x2="79.14" y2="24.89"/><circle class="cls-5" cx="92.01" cy="24.89" r="1.37"/><circle class="cls-5" cx="79.06" cy="24.89" r="1.37"/><line class="cls-2" x1="90.42" y1="39.8" x2="79.1" y2="39.8"/><circle class="cls-5" cx="79.06" cy="39.83" r="1.37"/><path class="cls-3" d="M145.77,62.07l-.22,1.17h1l-.12.59h-1L145,65.94a3.82,3.82,0,0,0-.08.7.37.37,0,0,0,.41.41,2.06,2.06,0,0,0,.35,0l0,.59a1.73,1.73,0,0,1-.58.08.81.81,0,0,1-.92-.85,4.05,4.05,0,0,1,.09-.82l.43-2.21h-.63l.12-.59h.62l.19-1Z" transform="translate(-52.2 -27.83)"/><path class="cls-3" d="M150.55,65a2.61,2.61,0,0,1-2.41,2.74,1.66,1.66,0,0,1-1.7-1.79,2.61,2.61,0,0,1,2.41-2.76A1.66,1.66,0,0,1,150.55,65Zm-3.34.92c0,.71.39,1.22,1,1.22.88,0,1.55-1.13,1.55-2.15a1.08,1.08,0,0,0-1-1.22C147.83,63.73,147.2,64.88,147.21,65.87Z" transform="translate(-52.2 -27.83)"/><rect class="cls-2" x="90" y="32.63" width="9.88" height="9.25"/><polyline class="cls-2" points="79.23 32.32 67.26 32.32 67.26 48.69"/><circle class="cls-5" cx="67.27" cy="48.14" r="1.37"/><circle class="cls-5" cx="79.06" cy="32.42" r="1.37"/><path class="cls-3" d="M173.55,37.3c0-.94-.11-2.08-.11-2.91h0c-.24.78-.51,1.63-.85,2.56l-1.19,3.27h-.66L169.62,37c-.32-1-.58-1.82-.77-2.62h0c0,.84-.07,2-.13,3l-.18,2.89h-.83l.47-6.74h1.11l1.15,3.26c.28.83.5,1.57.68,2.27h0c.18-.68.42-1.42.72-2.27l1.2-3.26h1.11l.42,6.74h-.86Z" transform="translate(-52.2 -27.83)"/><path class="cls-3" d="M179.88,37.8a2.37,2.37,0,0,1-2.41,2.57,2.31,2.31,0,0,1-2.32-2.49,2.36,2.36,0,0,1,2.4-2.56A2.29,2.29,0,0,1,179.88,37.8Zm-3.83,0c0,1.06.6,1.86,1.46,1.86s1.47-.79,1.47-1.88c0-.82-.41-1.85-1.45-1.85S176,36.94,176,37.85Z" transform="translate(-52.2 -27.83)"/><path class="cls-3" d="M184.72,33.16V39c0,.43,0,.92,0,1.25H184l0-.84h0a1.75,1.75,0,0,1-1.63.95,2.21,2.21,0,0,1-2.08-2.46,2.31,2.31,0,0,1,2.17-2.59,1.62,1.62,0,0,1,1.46.73h0V33.16Zm-.87,4.23a1.54,1.54,0,0,0,0-.37,1.29,1.29,0,0,0-1.27-1c-.91,0-1.45.8-1.45,1.86s.49,1.79,1.43,1.79a1.33,1.33,0,0,0,1.29-1,1.52,1.52,0,0,0,0-.38Z" transform="translate(-52.2 -27.83)"/><path class="cls-3" d="M186.24,38a1.54,1.54,0,0,0,1.66,1.68,3.14,3.14,0,0,0,1.34-.25l.16.63a4,4,0,0,1-1.62.31,2.25,2.25,0,0,1-2.38-2.45,2.34,2.34,0,0,1,2.27-2.6,2,2,0,0,1,2,2.27,2.19,2.19,0,0,1,0,.41Zm2.58-.63a1.25,1.25,0,0,0-1.22-1.42,1.44,1.44,0,0,0-1.35,1.42Z" transform="translate(-52.2 -27.83)"/><path class="cls-3" d="M190.32,33.16h.88v7.1h-.88Z" transform="translate(-52.2 -27.83)"/><path class="cls-3" d="M193.22,34.06a.53.53,0,0,1-.56.54.52.52,0,0,1-.53-.54.54.54,0,0,1,.55-.55A.53.53,0,0,1,193.22,34.06Zm-1,6.2V35.42h.88v4.84Z" transform="translate(-52.2 -27.83)"/><path class="cls-3" d="M194.14,36.73c0-.51,0-.91,0-1.31h.78l0,.8h0a1.79,1.79,0,0,1,1.6-.9c.67,0,1.71.4,1.71,2.06v2.88h-.88V37.47c0-.78-.29-1.43-1.12-1.43A1.29,1.29,0,0,0,195,37.35v2.91h-.88Z" transform="translate(-52.2 -27.83)"/><path class="cls-3" d="M203.39,39.55a2.84,2.84,0,0,1-.69,2.22,2.66,2.66,0,0,1-1.77.58,3.12,3.12,0,0,1-1.61-.4l.22-.68a2.63,2.63,0,0,0,1.42.39c.9,0,1.56-.47,1.56-1.7v-.53h0a1.72,1.72,0,0,1-1.54.81,2.16,2.16,0,0,1-2.06-2.36,2.31,2.31,0,0,1,2.19-2.56,1.62,1.62,0,0,1,1.51.83h0l0-.73h.78c0,.34,0,.74,0,1.32Zm-.88-2.22a1.16,1.16,0,0,0,0-.39,1.26,1.26,0,0,0-1.23-.94c-.84,0-1.44.71-1.44,1.83,0,.95.49,1.74,1.43,1.74a1.27,1.27,0,0,0,1.22-.9,1.54,1.54,0,0,0,.07-.47Z" transform="translate(-52.2 -27.83)"/><rect class="cls-2" x="113.3" y="2.17" width="39.79" height="14.67"/><path class="cls-1" d="M171.31,67.26h1.4l-1.31,6.86h3.18l-.23,1.22h-4.58Z" transform="translate(-52.2 -27.83)"/><path class="cls-1" d="M180.21,71.74h-2.9l-.46,2.41h3.26l-.23,1.19h-4.67l1.54-8.08h4.49L181,68.45h-3.08l-.41,2.12h2.91Z" transform="translate(-52.2 -27.83)"/><path class="cls-1" d="M183,73l-1.1,2.3h-1.49l4.05-8.08h1.75l1,8.08h-1.46l-.23-2.3ZM185.44,72l-.23-2c0-.43-.08-1.05-.12-1.54h0c-.22.48-.43,1.06-.66,1.54l-1,2Z" transform="translate(-52.2 -27.83)"/><path class="cls-1" d="M189.54,67.39a9.56,9.56,0,0,1,2-.19,3.48,3.48,0,0,1,2,.53,1.71,1.71,0,0,1,.77,1.46,2.44,2.44,0,0,1-1.87,2.31v0c.53.2.76.77.83,1.54a13.63,13.63,0,0,0,.29,2.27h-1.44a15.08,15.08,0,0,1-.22-1.93c-.06-1-.43-1.4-1.18-1.4H190l-.64,3.33H188Zm.71,3.55H191a1.64,1.64,0,0,0,1.82-1.55c0-.74-.59-1.08-1.38-1.08a2.79,2.79,0,0,0-.74.07Z" transform="translate(-52.2 -27.83)"/><path class="cls-1" d="M194.53,75.34l1.54-8.08h1.61L199.09,71a20.75,20.75,0,0,1,.73,2.53h0a21.23,21.23,0,0,1,.36-2.73l.67-3.55h1.32l-1.54,8.08h-1.43l-1.45-3.83a19.72,19.72,0,0,1-.77-2.6h0c-.08.77-.25,1.76-.47,3l-.66,3.45Z" transform="translate(-52.2 -27.83)"/><rect class="cls-2" x="113.84" y="35.91" width="39.18" height="14.73"/><line class="cls-2" x1="141.51" y1="18.27" x2="141.51" y2="25.95"/><line class="cls-2" x1="147.56" y1="18.05" x2="147.56" y2="26.04"/><circle class="cls-5" cx="141.47" cy="16.98" r="1.37"/><circle class="cls-5" cx="147.46" cy="16.98" r="1.37"/><line class="cls-2" x1="139.92" y1="30.3" x2="128.6" y2="30.3"/><circle class="cls-5" cx="128.56" cy="30.33" r="1.37"/><rect class="cls-5" x="139.34" y="23.3" width="9.88" height="9.25"/><polyline class="cls-2" points="139.1 25.82 116.76 25.82 116.76 35.18"/><circle class="cls-5" cx="116.77" cy="35.63" r="1.37"/><path class="cls-3" d="M195.18,52.87,195,54h1l-.12.59h-1l-.41,2.12a3.82,3.82,0,0,0-.08.7.37.37,0,0,0,.41.41,2,2,0,0,0,.35,0l0,.59a1.73,1.73,0,0,1-.58.08.81.81,0,0,1-.92-.85,4.09,4.09,0,0,1,.09-.82l.43-2.21h-.63l.12-.59h.62l.19-1Z" transform="translate(-52.2 -27.83)"/><path class="cls-3" d="M200,55.76a2.61,2.61,0,0,1-2.41,2.74,1.66,1.66,0,0,1-1.7-1.79,2.61,2.61,0,0,1,2.41-2.76A1.66,1.66,0,0,1,200,55.76Zm-3.34.92c0,.71.39,1.22,1,1.22.88,0,1.55-1.13,1.55-2.15a1.08,1.08,0,0,0-1-1.22C197.24,54.54,196.61,55.68,196.62,56.68Z" transform="translate(-52.2 -27.83)"/><path class="cls-3" d="M109.39,122.83l.6-4.55c.11-.8.3-2,.46-2.85h-.05c-.39.85-.85,1.85-1.31,2.72l-2.5,4.64h-.8l-.63-4.54c-.12-1-.21-2-.26-2.82h0c-.19.78-.45,2.05-.65,2.85l-1.15,4.55h-1l2.19-8.43h1.33l.66,4.84c.09.71.19,1.48.2,2.1h0c.26-.63.63-1.38,1-2.08l2.62-4.87h1.35l-1.08,8.43Z" transform="translate(-52.2 -27.83)"/><path class="cls-3" d="M117.22,119.17a3.63,3.63,0,0,1-3.35,3.8,2.31,2.31,0,0,1-2.36-2.49,3.63,3.63,0,0,1,3.35-3.84A2.31,2.31,0,0,1,117.22,119.17Zm-4.64,1.28c0,1,.54,1.7,1.43,1.7,1.23,0,2.15-1.58,2.15-3a1.5,1.5,0,0,0-1.41-1.69C113.44,117.47,112.56,119.06,112.58,120.44Z" transform="translate(-52.2 -27.83)"/><path class="cls-3" d="M123.8,114l-1.33,7a15.3,15.3,0,0,0-.26,1.91h-1l.16-1.2h0a2.58,2.58,0,0,1-2.18,1.34c-1.18,0-1.81-1-1.81-2.2a4,4,0,0,1,3.74-4.13,2.75,2.75,0,0,1,1.08.21l.54-2.9Zm-1.74,3.78a1.89,1.89,0,0,0-1-.25c-1.45,0-2.58,1.54-2.58,3.15,0,.73.25,1.49,1.14,1.49s1.76-.91,2-2.28Z" transform="translate(-52.2 -27.83)"/><path class="cls-3" d="M127.66,122.48a4.18,4.18,0,0,1-2,.48,2.18,2.18,0,0,1-2.3-2.43c0-1.83,1.35-3.89,3.3-3.89a1.57,1.57,0,0,1,1.78,1.55c0,1.59-1.79,2-4,2a2.51,2.51,0,0,0,.13,1.15,1.38,1.38,0,0,0,1.35.81,3.38,3.38,0,0,0,1.63-.43Zm-1.15-5c-1,0-1.73,1-2,1.91,1.63,0,2.9-.2,2.9-1.14C127.44,117.73,127.06,117.45,126.51,117.45Z" transform="translate(-52.2 -27.83)"/><path class="cls-3" d="M128.35,122.83,130,114h1l-1.7,8.88Z" transform="translate(-52.2 -27.83)"/><path class="cls-3" d="M130.57,122.83l1.16-6.06h1l-1.16,6.06Zm1.35-7.75a.69.69,0,0,1,.69-.7.6.6,0,0,1,.61.65.68.68,0,0,1-.7.7A.6.6,0,0,1,131.93,115.09Z" transform="translate(-52.2 -27.83)"/><path class="cls-3" d="M132.81,122.83l.81-4.29c.14-.68.21-1.26.29-1.76h.93l-.15,1.19h0a2.65,2.65,0,0,1,2.24-1.33,1.49,1.49,0,0,1,1.54,1.69,5.86,5.86,0,0,1-.11,1l-.68,3.53h-1l.66-3.49a4,4,0,0,0,.09-.78c0-.61-.24-1.06-1-1.06a2.67,2.67,0,0,0-2.06,2.39l-.55,2.94Z" transform="translate(-52.2 -27.83)"/><path class="cls-3" d="M138.93,124.21a3.21,3.21,0,0,0,1.6.4c1,0,1.81-.53,2.18-2.16l.2-.9h0a2.42,2.42,0,0,1-2.1,1.29,1.91,1.91,0,0,1-1.84-2.1,4,4,0,0,1,3.84-4.09,4.93,4.93,0,0,1,1.94.43l-.93,5a4.51,4.51,0,0,1-1.23,2.7,3.19,3.19,0,0,1-2.11.68,3.59,3.59,0,0,1-1.81-.43Zm4.64-6.53a2.52,2.52,0,0,0-1-.2c-1.51,0-2.55,1.58-2.56,3.08,0,.66.24,1.45,1.16,1.45s1.79-1.13,2-2.31Z" transform="translate(-52.2 -27.83)"/><path class="cls-3" d="M149.16,115.15l-.31,1.63h1.45l-.16.81h-1.45l-.56,2.94a5.31,5.31,0,0,0-.11,1,.51.51,0,0,0,.58.58,2.88,2.88,0,0,0,.49,0l0,.81a2.41,2.41,0,0,1-.8.11,1.13,1.13,0,0,1-1.28-1.18,5.62,5.62,0,0,1,.13-1.14l.6-3.07h-.88l.16-.81h.86l.26-1.36Z" transform="translate(-52.2 -27.83)"/><path class="cls-3" d="M155.49,119.17a3.63,3.63,0,0,1-3.35,3.8,2.31,2.31,0,0,1-2.37-2.49,3.63,3.63,0,0,1,3.35-3.84A2.31,2.31,0,0,1,155.49,119.17Zm-4.64,1.28c0,1,.54,1.7,1.43,1.7,1.23,0,2.15-1.58,2.15-3a1.5,1.5,0,0,0-1.41-1.69C151.71,117.47,150.84,119.06,150.85,120.44Z" transform="translate(-52.2 -27.83)"/><path class="cls-3" d="M158.88,114.4h1l-1.44,7.53h3.4l-.17.9h-4.43Z" transform="translate(-52.2 -27.83)"/><path class="cls-3" d="M167,118.87H164l-.58,3.08h3.45l-.17.89h-4.49l1.6-8.43h4.3l-.17.89h-3.25l-.51,2.7h3.07Z" transform="translate(-52.2 -27.83)"/><path class="cls-3" d="M169.15,120.17l-1.34,2.67h-1.1l4.37-8.43h1.23l1.16,8.43H172.4l-.34-2.67Zm2.83-.83-.33-2.44c-.05-.44-.11-1.05-.15-1.55h0c-.22.5-.44,1-.69,1.54l-1.26,2.45Z" transform="translate(-52.2 -27.83)"/><path class="cls-3" d="M175.5,114.53a9.21,9.21,0,0,1,1.84-.19,3,3,0,0,1,2,.61,1.82,1.82,0,0,1,.63,1.4,2.62,2.62,0,0,1-2,2.44v0c.59.2.88.83.94,1.7a13.94,13.94,0,0,0,.26,2.31h-1.08a19.54,19.54,0,0,1-.2-2c-.06-1.15-.49-1.64-1.33-1.64h-.93l-.69,3.68h-1Zm.3,3.83h.93a2,2,0,0,0,2.17-1.88c0-.9-.68-1.3-1.63-1.3a3.45,3.45,0,0,0-.88.09Z" transform="translate(-52.2 -27.83)"/><path class="cls-3" d="M179.83,122.83l1.6-8.43h1.14l1.94,4.78a18,18,0,0,1,.74,2.35h0a21.72,21.72,0,0,1,.35-2.64l.85-4.48h1l-1.61,8.43h-1l-1.92-4.77a15.72,15.72,0,0,1-.79-2.43h0c-.09.79-.23,1.63-.44,2.78l-.84,4.4Z" transform="translate(-52.2 -27.83)"/><path class="cls-6" d="M67.53,126.57H99.39s1.95-.07,2-3.63-4.68-5.48-4.68-5.48,3.1-7.32-2.44-10-9.24,2.57-9.24,2.57a5.11,5.11,0,0,0-6.58-2.36c-3.42,1.32-3.77,5.6-3.77,5.6a7.37,7.37,0,0,0-8.91,4.18C62.78,123.64,67.53,126.57,67.53,126.57Z" transform="translate(-52.2 -27.83)"/><polygon class="cls-7" points="132.14 129.24 132.14 125.55 35.71 125.55 35.71 114.75 132.14 114.75 132.14 110.68 148.04 119.96 132.14 129.24"/><path class="cls-3" d="M107.76,152.08l.6-4.55c.11-.8.3-2,.46-2.85h-.05c-.39.85-.85,1.85-1.31,2.72L105,152h-.8l-.63-4.54c-.12-1-.21-2-.26-2.81h0c-.19.78-.45,2.05-.65,2.85l-1.15,4.55h-1l2.19-8.43H104l.66,4.84c.09.71.19,1.48.2,2.1h0c.26-.63.63-1.38,1-2.08l2.62-4.87h1.35l-1.08,8.43Z" transform="translate(-52.2 -27.83)"/><path class="cls-3" d="M115.59,148.42a3.63,3.63,0,0,1-3.35,3.8,2.31,2.31,0,0,1-2.36-2.49,3.63,3.63,0,0,1,3.35-3.84A2.31,2.31,0,0,1,115.59,148.42ZM111,149.69c0,1,.54,1.7,1.43,1.7,1.23,0,2.15-1.58,2.15-3a1.5,1.5,0,0,0-1.41-1.69C111.81,146.72,110.94,148.31,111,149.69Z" transform="translate(-52.2 -27.83)"/><path class="cls-3" d="M122.17,143.2l-1.33,7a15.29,15.29,0,0,0-.26,1.91h-1l.16-1.2h0a2.58,2.58,0,0,1-2.18,1.34c-1.18,0-1.81-1-1.81-2.2a4,4,0,0,1,3.74-4.13,2.75,2.75,0,0,1,1.08.21l.54-2.9ZM120.43,147a1.89,1.89,0,0,0-1-.25c-1.45,0-2.58,1.54-2.58,3.15,0,.73.25,1.49,1.14,1.49s1.76-.91,2-2.28Z" transform="translate(-52.2 -27.83)"/><path class="cls-3" d="M126,151.73a4.18,4.18,0,0,1-2,.47,2.18,2.18,0,0,1-2.3-2.43c0-1.83,1.35-3.89,3.3-3.89a1.57,1.57,0,0,1,1.78,1.55c0,1.59-1.79,2-4,2a2.52,2.52,0,0,0,.13,1.15,1.38,1.38,0,0,0,1.35.81,3.38,3.38,0,0,0,1.63-.43Zm-1.15-5c-1,0-1.73,1-2,1.91,1.63,0,2.9-.2,2.9-1.14C125.81,147,125.44,146.7,124.89,146.7Z" transform="translate(-52.2 -27.83)"/><path class="cls-3" d="M126.72,152.08l1.69-8.88h1l-1.7,8.88Z" transform="translate(-52.2 -27.83)"/><path class="cls-3" d="M128.95,152.08l1.16-6.06h1L130,152.08Zm1.35-7.74a.69.69,0,0,1,.69-.7.6.6,0,0,1,.61.65.68.68,0,0,1-.7.7A.6.6,0,0,1,130.3,144.34Z" transform="translate(-52.2 -27.83)"/><path class="cls-3" d="M131.19,152.08l.81-4.29c.14-.68.21-1.26.29-1.76h.93l-.15,1.19h0a2.65,2.65,0,0,1,2.24-1.33,1.49,1.49,0,0,1,1.54,1.69,5.84,5.84,0,0,1-.11,1l-.68,3.53h-1l.66-3.49a4,4,0,0,0,.09-.78c0-.61-.24-1.06-1-1.06a2.67,2.67,0,0,0-2.06,2.39l-.55,2.94Z" transform="translate(-52.2 -27.83)"/><path class="cls-3" d="M137.31,153.46a3.22,3.22,0,0,0,1.6.4c1,0,1.81-.53,2.18-2.17l.2-.9h0a2.42,2.42,0,0,1-2.1,1.29,1.91,1.91,0,0,1-1.84-2.1,4,4,0,0,1,3.84-4.09,4.92,4.92,0,0,1,1.94.43l-.93,5a4.51,4.51,0,0,1-1.23,2.7,3.19,3.19,0,0,1-2.11.68,3.58,3.58,0,0,1-1.81-.43Zm4.64-6.53a2.52,2.52,0,0,0-1-.2c-1.51,0-2.55,1.58-2.56,3.08,0,.66.24,1.45,1.16,1.45s1.79-1.13,2-2.32Z" transform="translate(-52.2 -27.83)"/><path class="cls-3" d="M147.54,144.4l-.31,1.63h1.45l-.16.81h-1.45l-.56,2.94a5.31,5.31,0,0,0-.11,1,.51.51,0,0,0,.58.58,2.82,2.82,0,0,0,.49,0l0,.81a2.42,2.42,0,0,1-.8.11,1.13,1.13,0,0,1-1.28-1.18,5.61,5.61,0,0,1,.13-1.14l.6-3.07h-.88l.16-.81h.86l.26-1.36Z" transform="translate(-52.2 -27.83)"/><path class="cls-3" d="M153.87,148.42a3.63,3.63,0,0,1-3.35,3.8,2.31,2.31,0,0,1-2.37-2.49,3.63,3.63,0,0,1,3.35-3.84A2.31,2.31,0,0,1,153.87,148.42Zm-4.64,1.28c0,1,.54,1.7,1.43,1.7,1.23,0,2.15-1.58,2.15-3a1.5,1.5,0,0,0-1.41-1.69C150.09,146.72,149.21,148.31,149.22,149.69Z" transform="translate(-52.2 -27.83)"/><path class="cls-8" d="M157.25,143.65h1l-1.44,7.53h3.4l-.17.9h-4.43Z" transform="translate(-52.2 -27.83)"/><path class="cls-8" d="M165.41,148.12h-3.07l-.58,3.08h3.45l-.17.89h-4.49l1.6-8.43h4.3l-.17.89H163l-.51,2.7h3.07Z" transform="translate(-52.2 -27.83)"/><path class="cls-8" d="M167.52,149.42l-1.34,2.67h-1.1l4.37-8.43h1.23l1.16,8.43h-1.06l-.34-2.67Zm2.83-.83-.33-2.44c-.05-.44-.11-1.05-.15-1.55h0c-.22.5-.44,1-.69,1.54l-1.26,2.45Z" transform="translate(-52.2 -27.83)"/><path class="cls-8" d="M173.88,143.78a9.21,9.21,0,0,1,1.84-.19,3,3,0,0,1,2,.61,1.82,1.82,0,0,1,.63,1.4,2.62,2.62,0,0,1-2,2.44v0c.59.2.88.83.94,1.7a13.94,13.94,0,0,0,.26,2.31h-1.08a19.52,19.52,0,0,1-.2-2c-.06-1.15-.49-1.64-1.33-1.64H174l-.69,3.68h-1Zm.3,3.83h.93a2,2,0,0,0,2.17-1.88c0-.9-.68-1.3-1.63-1.3a3.45,3.45,0,0,0-.88.09Z" transform="translate(-52.2 -27.83)"/><path class="cls-8" d="M178.2,152.08l1.6-8.43h1.14l1.94,4.78a18,18,0,0,1,.74,2.35h0a21.7,21.7,0,0,1,.35-2.64l.85-4.48h1l-1.61,8.43h-1l-1.92-4.77a15.75,15.75,0,0,1-.79-2.43h0c-.09.79-.23,1.63-.44,2.78l-.84,4.4Z" transform="translate(-52.2 -27.83)"/><path class="cls-9" d="M63.45,156.32H97.32s2.07-.07,2.17-3.86-5-5.82-5-5.82,3.3-7.79-2.6-10.59-9.82,2.74-9.82,2.74a5.43,5.43,0,0,0-7-2.51c-3.64,1.4-4,5.95-4,5.95a7.83,7.83,0,0,0-9.47,4.44C58.4,153.2,63.45,156.32,63.45,156.32Z" transform="translate(-52.2 -27.83)"/><polygon class="cls-7" points="126.39 159.24 126.39 155.55 29.96 155.55 29.96 144.75 126.39 144.75 126.39 140.68 142.29 149.96 126.39 159.24"/><path class="cls-3" d="M102,182.08l.6-4.55c.11-.8.3-2,.46-2.85H103c-.39.85-.85,1.85-1.31,2.72L99.21,182h-.8l-.63-4.54c-.12-1-.21-2-.26-2.82h0c-.19.78-.45,2.05-.65,2.85l-1.15,4.55h-1l2.19-8.43h1.33l.66,4.84c.09.71.19,1.48.2,2.1h0c.26-.63.63-1.38,1-2.08l2.62-4.87h1.35L103,182.08Z" transform="translate(-52.2 -27.83)"/><path class="cls-3" d="M109.84,178.42a3.63,3.63,0,0,1-3.35,3.8,2.31,2.31,0,0,1-2.36-2.49,3.63,3.63,0,0,1,3.35-3.84A2.31,2.31,0,0,1,109.84,178.42Zm-4.64,1.28c0,1,.54,1.7,1.43,1.7,1.23,0,2.15-1.58,2.15-3a1.5,1.5,0,0,0-1.41-1.69C106.06,176.72,105.19,178.31,105.2,179.69Z" transform="translate(-52.2 -27.83)"/><path class="cls-3" d="M116.42,173.2l-1.33,7a15.29,15.29,0,0,0-.26,1.91h-1l.16-1.2h0a2.58,2.58,0,0,1-2.18,1.34c-1.18,0-1.81-1-1.81-2.2a4,4,0,0,1,3.74-4.13,2.75,2.75,0,0,1,1.08.21l.54-2.9ZM114.68,177a1.89,1.89,0,0,0-1-.25c-1.45,0-2.58,1.54-2.58,3.15,0,.73.25,1.49,1.14,1.49s1.76-.91,2-2.28Z" transform="translate(-52.2 -27.83)"/><path class="cls-3" d="M120.29,181.73a4.18,4.18,0,0,1-2,.47,2.18,2.18,0,0,1-2.3-2.43c0-1.83,1.35-3.89,3.3-3.89a1.57,1.57,0,0,1,1.78,1.55c0,1.59-1.79,2-4,2a2.52,2.52,0,0,0,.13,1.15,1.38,1.38,0,0,0,1.35.81,3.38,3.38,0,0,0,1.63-.43Zm-1.15-5c-1,0-1.73,1-2,1.91,1.63,0,2.9-.2,2.9-1.14C120.06,177,119.69,176.7,119.14,176.7Z" transform="translate(-52.2 -27.83)"/><path class="cls-3" d="M121,182.08l1.69-8.88h1l-1.7,8.88Z" transform="translate(-52.2 -27.83)"/><path class="cls-3" d="M123.2,182.08l1.16-6.06h1l-1.16,6.06Zm1.35-7.75a.69.69,0,0,1,.69-.7.6.6,0,0,1,.61.65.68.68,0,0,1-.7.7A.6.6,0,0,1,124.55,174.34Z" transform="translate(-52.2 -27.83)"/><path class="cls-3" d="M125.44,182.08l.81-4.29c.14-.68.21-1.26.29-1.76h.93l-.15,1.19h0a2.65,2.65,0,0,1,2.24-1.33,1.49,1.49,0,0,1,1.54,1.69,5.84,5.84,0,0,1-.11,1l-.68,3.53h-1l.66-3.49a4,4,0,0,0,.09-.78c0-.61-.24-1.06-1-1.06a2.67,2.67,0,0,0-2.06,2.39l-.55,2.94Z" transform="translate(-52.2 -27.83)"/><path class="cls-3" d="M131.56,183.46a3.22,3.22,0,0,0,1.6.4c1,0,1.81-.53,2.18-2.17l.2-.9h0a2.42,2.42,0,0,1-2.1,1.29,1.91,1.91,0,0,1-1.84-2.1,4,4,0,0,1,3.84-4.09,4.92,4.92,0,0,1,1.94.43l-.93,5a4.51,4.51,0,0,1-1.23,2.7,3.19,3.19,0,0,1-2.11.68,3.58,3.58,0,0,1-1.81-.43Zm4.64-6.53a2.52,2.52,0,0,0-1-.2c-1.51,0-2.55,1.58-2.56,3.08,0,.66.24,1.45,1.16,1.45s1.79-1.13,2-2.32Z" transform="translate(-52.2 -27.83)"/><path class="cls-3" d="M141.79,174.4l-.31,1.63h1.45l-.16.81h-1.45l-.56,2.94a5.31,5.31,0,0,0-.11,1,.51.51,0,0,0,.58.58,2.83,2.83,0,0,0,.49,0l-.05.81a2.41,2.41,0,0,1-.8.11,1.12,1.12,0,0,1-1.28-1.18,5.61,5.61,0,0,1,.13-1.14l.6-3.07h-.88l.16-.81h.86l.26-1.36Z" transform="translate(-52.2 -27.83)"/><path class="cls-3" d="M148.12,178.42a3.63,3.63,0,0,1-3.35,3.8,2.31,2.31,0,0,1-2.36-2.49,3.63,3.63,0,0,1,3.35-3.84A2.31,2.31,0,0,1,148.12,178.42Zm-4.64,1.28c0,1,.54,1.7,1.43,1.7,1.23,0,2.15-1.58,2.15-3a1.5,1.5,0,0,0-1.41-1.69C144.34,176.72,143.46,178.31,143.48,179.69Z" transform="translate(-52.2 -27.83)"/><path class="cls-8" d="M151.5,173.65h1l-1.44,7.53h3.4l-.17.9H149.9Z" transform="translate(-52.2 -27.83)"/><path class="cls-8" d="M159.66,178.12H156.6L156,181.2h3.45l-.17.89h-4.49l1.6-8.43h4.3l-.17.89h-3.25l-.51,2.7h3.07Z" transform="translate(-52.2 -27.83)"/><path class="cls-8" d="M161.77,179.42l-1.34,2.67h-1.1l4.37-8.43h1.23l1.16,8.43H165l-.34-2.67Zm2.83-.83-.33-2.44c-.05-.44-.11-1.05-.15-1.55h0c-.22.5-.44,1-.69,1.54l-1.26,2.45Z" transform="translate(-52.2 -27.83)"/><path class="cls-8" d="M168.13,173.78a9.18,9.18,0,0,1,1.84-.19,3,3,0,0,1,2,.61,1.82,1.82,0,0,1,.63,1.4,2.62,2.62,0,0,1-2,2.44v0c.59.2.88.83.94,1.7a13.94,13.94,0,0,0,.26,2.31h-1.08a19.52,19.52,0,0,1-.2-2c-.06-1.15-.49-1.64-1.33-1.64h-.93l-.69,3.68h-1Zm.3,3.83h.93a2,2,0,0,0,2.17-1.88c0-.9-.68-1.3-1.63-1.3a3.43,3.43,0,0,0-.88.09Z" transform="translate(-52.2 -27.83)"/><path class="cls-8" d="M172.45,182.08l1.6-8.43h1.14l1.94,4.78a18,18,0,0,1,.74,2.35h0a21.7,21.7,0,0,1,.35-2.64l.85-4.48h1l-1.61,8.43h-1l-1.92-4.77a15.74,15.74,0,0,1-.79-2.43h0c-.09.79-.23,1.63-.44,2.78l-.84,4.4Z" transform="translate(-52.2 -27.83)"/><circle class="cls-10" cx="25.74" cy="148.28" r="14.87"/><path class="cls-10" d="M90.55,176.11a12.61,12.61,0,0,0-25.22,0" transform="translate(-52.2 -27.83)"/><path class="cls-11" d="M90.55,176.11q0-.38,0-.75" transform="translate(-52.2 -27.83)"/><path class="cls-12" d="M90.35,173.85a12.61,12.61,0,0,0-24.93.75" transform="translate(-52.2 -27.83)"/><path class="cls-11" d="M65.35,175.36q0,.37,0,.75" transform="translate(-52.2 -27.83)"/><circle class="cls-13" cx="25.74" cy="148.28" r="1.47"/><line class="cls-10" x1="25.72" y1="148.29" x2="19.68" y2="137.45"/><line class="cls-14" x1="25.72" y1="148.29" x2="21.26" y2="140.3"/><path class="cls-15" d="M73.81,168.76,73,170.23l-.05,0-.33-2.51-.72-2.41,1.67,1.88,2,1.6v.05Z" transform="translate(-52.2 -27.83)"/><polyline class="cls-7" points="36.92 178 127.52 178 127.52 173.93 143.41 183.21 127.52 192.49 127.52 188.8 40.3 188.8"/><path class="cls-3" d="M103.14,215.33l.6-4.55c.11-.8.3-2,.46-2.85h-.05c-.39.85-.85,1.85-1.31,2.72l-2.5,4.64h-.8l-.63-4.54c-.12-1-.21-2-.26-2.82h0c-.19.78-.45,2.05-.65,2.85l-1.15,4.55h-1L98,206.9h1.33l.66,4.84c.09.71.19,1.48.2,2.1h0c.26-.63.63-1.38,1-2.08l2.62-4.87h1.35l-1.08,8.43Z" transform="translate(-52.2 -27.83)"/><path class="cls-3" d="M111,211.67a3.63,3.63,0,0,1-3.35,3.8,2.31,2.31,0,0,1-2.36-2.49,3.63,3.63,0,0,1,3.35-3.84A2.31,2.31,0,0,1,111,211.67Zm-4.64,1.28c0,1,.54,1.7,1.43,1.7,1.23,0,2.15-1.58,2.15-3a1.5,1.5,0,0,0-1.41-1.69C107.19,210,106.31,211.56,106.33,212.94Z" transform="translate(-52.2 -27.83)"/><path class="cls-3" d="M117.55,206.45l-1.33,7a15.29,15.29,0,0,0-.26,1.91h-1l.16-1.2h0a2.58,2.58,0,0,1-2.18,1.34c-1.18,0-1.81-1-1.81-2.2a4,4,0,0,1,3.74-4.13,2.75,2.75,0,0,1,1.08.21l.54-2.9Zm-1.74,3.78a1.89,1.89,0,0,0-1-.25c-1.45,0-2.58,1.54-2.58,3.15,0,.73.25,1.49,1.14,1.49s1.76-.91,2-2.28Z" transform="translate(-52.2 -27.83)"/><path class="cls-3" d="M121.41,215a4.18,4.18,0,0,1-2,.47,2.18,2.18,0,0,1-2.3-2.43c0-1.83,1.35-3.89,3.3-3.89a1.57,1.57,0,0,1,1.78,1.55c0,1.59-1.79,2-4,2a2.52,2.52,0,0,0,.13,1.15,1.38,1.38,0,0,0,1.35.81,3.38,3.38,0,0,0,1.63-.43Zm-1.15-5c-1,0-1.73,1-2,1.91,1.63,0,2.9-.2,2.9-1.14C121.19,210.23,120.81,210,120.26,210Z" transform="translate(-52.2 -27.83)"/><path class="cls-3" d="M122.1,215.33l1.69-8.88h1l-1.7,8.88Z" transform="translate(-52.2 -27.83)"/><path class="cls-3" d="M124.32,215.33l1.16-6.06h1l-1.16,6.06Zm1.35-7.75a.69.69,0,0,1,.69-.7.6.6,0,0,1,.61.65.68.68,0,0,1-.7.7A.6.6,0,0,1,125.68,207.59Z" transform="translate(-52.2 -27.83)"/><path class="cls-3" d="M126.56,215.33l.81-4.29c.14-.68.21-1.26.29-1.76h.93l-.15,1.19h0a2.65,2.65,0,0,1,2.24-1.33,1.49,1.49,0,0,1,1.54,1.69,5.84,5.84,0,0,1-.11,1l-.68,3.53h-1l.66-3.49a4,4,0,0,0,.09-.78c0-.61-.24-1.06-1-1.06a2.67,2.67,0,0,0-2.06,2.39l-.55,2.94Z" transform="translate(-52.2 -27.83)"/><path class="cls-3" d="M132.68,216.71a3.22,3.22,0,0,0,1.6.4c1,0,1.81-.53,2.18-2.17l.2-.9h0a2.42,2.42,0,0,1-2.1,1.29,1.91,1.91,0,0,1-1.84-2.1,4,4,0,0,1,3.84-4.09,4.92,4.92,0,0,1,1.94.43l-.93,5a4.51,4.51,0,0,1-1.23,2.7,3.19,3.19,0,0,1-2.11.68,3.58,3.58,0,0,1-1.81-.43Zm4.64-6.53a2.52,2.52,0,0,0-1-.2c-1.51,0-2.55,1.58-2.56,3.08,0,.66.24,1.45,1.16,1.45s1.79-1.13,2-2.32Z" transform="translate(-52.2 -27.83)"/><path class="cls-3" d="M142.91,207.65l-.31,1.63h1.45l-.16.81h-1.45l-.56,2.94a5.31,5.31,0,0,0-.11,1,.51.51,0,0,0,.58.58,2.83,2.83,0,0,0,.49,0l-.05.81a2.41,2.41,0,0,1-.8.11,1.12,1.12,0,0,1-1.28-1.18,5.61,5.61,0,0,1,.13-1.14l.6-3.07h-.88l.16-.81h.86l.26-1.36Z" transform="translate(-52.2 -27.83)"/><path class="cls-3" d="M149.24,211.67a3.63,3.63,0,0,1-3.35,3.8,2.31,2.31,0,0,1-2.36-2.49,3.63,3.63,0,0,1,3.35-3.84A2.31,2.31,0,0,1,149.24,211.67Zm-4.64,1.28c0,1,.54,1.7,1.43,1.7,1.23,0,2.15-1.58,2.15-3a1.5,1.5,0,0,0-1.41-1.69C145.46,210,144.59,211.56,144.6,212.94Z" transform="translate(-52.2 -27.83)"/><path class="cls-8" d="M152.63,206.9h1l-1.44,7.53h3.4l-.17.9H151Z" transform="translate(-52.2 -27.83)"/><path class="cls-8" d="M160.79,211.37h-3.07l-.58,3.08h3.45l-.17.89h-4.49l1.6-8.43h4.3l-.17.89h-3.25l-.51,2.7H161Z" transform="translate(-52.2 -27.83)"/><path class="cls-8" d="M162.9,212.67l-1.34,2.67h-1.1l4.37-8.43h1.23l1.16,8.43h-1.06l-.34-2.67Zm2.83-.83-.33-2.44c-.05-.44-.11-1.05-.15-1.55h0c-.22.5-.44,1-.69,1.54l-1.26,2.45Z" transform="translate(-52.2 -27.83)"/><path class="cls-8" d="M169.25,207a9.18,9.18,0,0,1,1.84-.19,3,3,0,0,1,2,.61,1.82,1.82,0,0,1,.63,1.4,2.62,2.62,0,0,1-2,2.44v0c.59.2.88.83.94,1.7a13.94,13.94,0,0,0,.26,2.31h-1.08a19.52,19.52,0,0,1-.2-2c-.06-1.15-.49-1.64-1.33-1.64h-.93l-.69,3.68h-1Zm.3,3.83h.93a2,2,0,0,0,2.17-1.88c0-.9-.68-1.3-1.63-1.3a3.43,3.43,0,0,0-.88.09Z" transform="translate(-52.2 -27.83)"/><path class="cls-8" d="M173.58,215.33l1.6-8.43h1.14l1.94,4.78A18,18,0,0,1,179,214h0a21.7,21.7,0,0,1,.35-2.64l.85-4.48h1l-1.61,8.43h-1l-1.92-4.77a15.74,15.74,0,0,1-.79-2.43h0c-.09.79-.23,1.63-.44,2.78l-.84,4.4Z" transform="translate(-52.2 -27.83)"/></svg>